<svg xmlns="http://www.w3.org/2000/svg" viewBox="0 0 500 500" xmlns:v="https://vecta.io/nano"><path d="M253.276,5.19C124.405,5.19,19.56,110.035,19.56,238.907c0,6.852.315,13.631.895,20.334,7.708,131.04,109.066,235.12,232.572,235.129h.018c62.333,0,120.915-26.182,164.945-73.72,37.157-40.118,60.185-91.4,66.393-146.823a234.582,234.582,0,0,0,2.61-34.92C486.993,110.035,382.148,5.19,253.276,5.19Z"/><path d="M253.276,435.429c-108.363,0-196.522-88.159-196.522-196.522S144.913,42.384,253.276,42.384,449.8,130.544,449.8,238.907,361.639,435.429,253.276,435.429Z" fill="#fff"/><g stroke="#000" stroke-miterlimit="10"><path d="M240.138 240.41c-4.431-15.614-8.952-35.6-21.385-47.034-13.411-12.331-30.545-5.383-43.557 3.818-14.656 10.364-27.487 23.548-39.576 36.732-12.438 13.564-23.82 28.192-31.784 44.874a114.218 114.218 0 0 0-8.225 22.946c-1.1 4.663-4.976 17.136-.014 20.521 2.846 1.941 9.732 1.243 13.1 1.5l11.661.866 7.511.626 27.273 2.273 7.555.638c5.731.51 20.769 4.935 24.4-.392 2.121-3.113 2.429-8.527 4.253-12.121a90.72 90.72 0 0 1 7.587-12.041 115.557 115.557 0 0 1 19.093-20.486c6.191-5.2 15.461-8.36 20.263-14.9 5.772-7.866 4.45-19.045 1.845-27.82zM197 261.114c-29.2-.006-29.177-45.3.009-45.3 29.208.01 29.091 45.059-.009 45.3z" stroke-width="9.225"/><path d="M257.354 334.847c22.465-.156 22.683-36.393.021-36.531-22.76-.14-22.721 36.396-.021 36.531z" stroke-width="5.635"/><path d="M384.058 239.591c-17.025-19.154-37.161-42.76-62-51.661-29.071-10.416-40.237 27.661-46.285 47.907-2.887 9.665-5.9 21.323-.531 30.727 2.9 5.081 7.692 7.185 12.491 10.1a87.232 87.232 0 0 1 15.932 13.026 120.68 120.68 0 0 1 11.928 13.837c2.556 3.473 9.041 10.7 9.04 15.27 0 3.845-5.751 10.285-7.963 13.058a64.511 64.511 0 0 1-14.224 13.076c-10.612 7.2-23.088 11.022-35.8 12.173-4.795.434-11.893-.993-15.233 3.364-3.811 4.972-.188 10.971 5.426 11.922 11.448 1.938 26.523-2.263 37.114-6.368a81.945 81.945 0 0 0 30.991-21.064 79.306 79.306 0 0 0 5.962-7.4c1.321-1.858 2.915-6.066 4.721-7.482 2.149-1.684 7.348-1.177 10.365-1.428l9.685-.807 39.889-3.324 10.858-.9c7.038-.587 14.933.932 14.621-8.219-.97-28.228-18.729-55.449-36.987-75.807zm-90.209-1.13c.007-30 46.145-30.944 47.429-.962a23.942 23.942 0 0 1-21.754 24.623c-13.606 1.104-25.562-10.079-25.675-23.661z" stroke-width="9.667"/><path d="M332.843 162.73a182.079 182.079 0 0 1 23.12 13.693q5.694 4.006 11.066 8.445c3.33 2.75 6.739 7.03 10.488 9.121 7.562 4.217 7.8-10.785 8.724-15.537a240.552 240.552 0 0 0 4.161-29.481c.5-7.331 2.042-19.734-4.541-24.972-6.287-5-15.26.88-20.73 4.443-7.358 4.792-13.925 10.729-20.333 16.7-2.258 2.102-18.178 14.331-11.955 17.588z" stroke-width="6.676"/><path d="M178.227 157.723c-12.91-13.723-29.051-31.531-47.183-38.208-24.028-8.849-17.71 31.37-15.939 43.587 1.474 10.164 2.725 21.03 5.732 30.875 3.242 10.61 10.309.718 15.244-3.506a188.992 188.992 0 0 1 23.888-17.611c3.331-2.046 22.931-9.904 18.258-15.137z" stroke-width="7.394"/></g></svg>