<svg xmlns="http://www.w3.org/2000/svg" viewBox="0 0 500 500" xmlns:v="https://vecta.io/nano"><path d="M417.859 364.842a17.475 17.475 0 0 1-10.794-3.745l-46.124-35.779a31.147 31.147 0 0 1-12.141-24.774v-85.155a37.5 37.5 0 0 1 15.873-30.61l44.857-31.622a16.421 16.421 0 0 1 9.5-3.048 16.615 16.615 0 0 1 16.606 16.585V347.1a17.78 17.78 0 0 1-17.777 17.742z"/><path d="M419.03 153.489a13.193 13.193 0 0 1 13.227 13.2V347.1a14.345 14.345 0 0 1-14.4 14.361 14.12 14.12 0 0 1-8.722-3.035l-46.125-35.78a27.976 27.976 0 0 1-10.828-22.105v-85.152a34.073 34.073 0 0 1 14.44-27.848l44.857-31.621a13.012 13.012 0 0 1 7.549-2.431m0-6.759h0a19.782 19.782 0 0 0-11.445 3.665l-44.853 31.622a40.879 40.879 0 0 0-17.306 33.372v85.154a34.509 34.509 0 0 0 13.444 27.446l46.125 35.779a20.827 20.827 0 0 0 12.865 4.454 21.163 21.163 0 0 0 21.157-21.12V166.693a20 20 0 0 0-19.985-19.963zm-150.75-12.496H137.255a54.093 54.093 0 0 0-54.093 54.093v140.982a54.093 54.093 0 0 0 54.093 54.091h131.023a54.093 54.093 0 0 0 54.093-54.093v-140.98a54.093 54.093 0 0 0-54.093-54.093z"/></svg>
