<svg xmlns="http://www.w3.org/2000/svg" viewBox="0 0 500 500" xmlns:v="https://vecta.io/nano"><path d="M179.661 441.049c-42.158-.382-76.233-25.3-75.959-55.541.135-14.8 8.283-28.573 22.946-38.789 14.222-9.91 33.05-15.367 53.016-15.367h.992c20.35.185 39.406 6.042 53.547 16.278l16.85-277.517a4 4 0 0 1 5.659-3.394l159.964 73.286a4 4 0 0 1 2.27 4.351l-9.087 50.052a4 4 0 0 1-5.315 3.04l-115.919-42.589L256.6 386.427c.011.162.017.313.016.465-.134 14.8-8.283 28.577-22.946 38.794-14.223 9.91-33.05 15.367-53.016 15.367z"/><path d="M255.046 70.36l159.965 73.286-9.087 50.054-120.58-44.306-32.765 236.9c0 .191.038.376.036.568-.253 27.859-32.38 50.193-71.961 50.193h-.957c-40.016-.363-72.25-23.422-71.995-51.5.253-27.859 32.38-50.195 71.962-50.193h.956c23.332.212 43.96 8.171 57.1 20.311L255.046 70.36m0-8a8 8 0 0 0-7.986 7.515l-16.432 270.639c-13.995-8.305-31.473-12.99-49.935-13.158h-1.029c-20.775 0-40.415 5.711-55.3 16.085-15.755 10.978-24.512 25.906-24.658 42.035-.148 16.264 8.461 31.437 24.24 42.726 14.924 10.676 34.7 16.66 55.681 16.851h1.03c20.775 0 40.415-5.712 55.3-16.085 15.755-10.978 24.512-25.906 24.658-42.035v-.326l31.295-226.281 111.258 40.881a8 8 0 0 0 10.63-6.08l9.087-50.052a8 8 0 0 0-4.539-8.7L258.378 63.087a8 8 0 0 0-3.332-.727z"/></svg>