<svg xmlns="http://www.w3.org/2000/svg" viewBox="0 0 500 500" xmlns:v="https://vecta.io/nano"><path d="M222.107 114.467a4 4 0 0 1-2.7-1.048l-20.445-18.7-33.9-20.256a4 4 0 0 1 .949-7.279l21.073-6.041 15.605-19.532a4 4 0 0 1 3.954-1.417l34.468 7.3 13.584-18.957a4 4 0 0 1 4.863-1.331L309.6 49.234a4 4 0 0 1 1.616 6.024l-18.14 24.785-20.41 28.124a4 4 0 0 1-2.846 1.631l-47.322 4.65c-.13.013-.261.019-.391.019z"/><path d="M257.944 30.866L307.988 52.9l-18.14 24.786-20.419 28.136-47.322 4.65-20.746-18.979-34.25-20.464 22.3-6.392 16.4-20.53 37.025 7.84 15.108-21.081m0-8a8 8 0 0 0-6.506 3.341l-12.059 16.83-31.911-6.756a7.995 7.995 0 0 0-7.907 2.833L184.752 57.65l-19.846 5.689a8 8 0 0 0-1.9 14.558l33.553 20.047 20.147 18.426a8 8 0 0 0 5.4 2.1q.39 0 .782-.038l47.322-4.65a8 8 0 0 0 5.693-3.263l20.419-28.139 18.122-24.76a8 8 0 0 0-3.232-12.047l-50.045-22.029a7.977 7.977 0 0 0-3.22-.679zM369.066 453.1a3.968 3.968 0 0 1-1.1-.153L313.9 437.532 183.787 447.2l-.3.011a3.991 3.991 0 0 1-1.417-.26l-74.287-28.144a4 4 0 0 1-2.563-3.341l-3.215-32.073a3.99 3.99 0 0 1 .51-2.388l31.918-55.686-10.448-14.23a4 4 0 0 1 1.665-6.05l17.157-7.268-12.249-8.409a4 4 0 0 1-.7-5.981l5.762-6.367L161 209.15a3.992 3.992 0 0 1 .9-1.413l48.415-48.9 15.123-16.586a3.994 3.994 0 0 1 2.616-1.291l46.025-3.917.34-.014a4 4 0 0 1 2.058.569l36.723 22.029a4.044 4.044 0 0 1 .851.684l37.89 40.133a4.057 4.057 0 0 1 .421.531l29.662 44.6a4 4 0 0 1-.449 4.991L365.447 267.3l28.158 28.6a4 4 0 0 1 .856 4.311l-17.425 42.929 36.332 65.56a4 4 0 0 1-.755 4.851l-40.8 38.459a4 4 0 0 1-2.747 1.09z"/><path d="M274.418 141.024l36.722 22.033 37.89 40.133 29.662 44.6-18.829 19.541 30.891 31.383-18.144 44.7 37.259 67.225-40.8 38.459-54.762-15.608-130.816 9.721-74.291-28.144-3.215-32.074L139.2 325.05l-11.987-16.328 23.887-10.117-18.269-12.54 6.275-6.933 25.642-68.581 48.473-48.962 15.178-16.648 46.024-3.917m0-8l-.678.029-46.025 3.917a8 8 0 0 0-5.233 2.581l-15.067 16.525-48.357 48.847a7.989 7.989 0 0 0-1.808 2.826L132.143 274.9l-5.249 5.8a8 8 0 0 0 1.4 11.964l6.229 4.276-10.434 4.42a8 8 0 0 0-3.328 12.1l8.907 12.132-30.62 53.423a8 8 0 0 0-1.019 4.776l3.215 32.074a8 8 0 0 0 5.126 6.683l74.286 28.144a8 8 0 0 0 2.835.519l.592-.022 129.4-9.615 53.392 15.216a8 8 0 0 0 7.68-1.872l40.8-38.46a8 8 0 0 0 1.51-9.7l-35.4-63.88 16.706-41.158a8 8 0 0 0-1.711-8.62l-25.43-25.832 13.423-13.931a8 8 0 0 0 .9-9.981l-29.662-44.6a8.062 8.062 0 0 0-.844-1.062l-37.89-40.133a8.045 8.045 0 0 0-1.7-1.368l-36.722-22.033a8 8 0 0 0-4.116-1.14z"/></svg>