<?xml version="1.0" encoding="utf-8"?>
<svg viewBox="0 0 300 300" xmlns="http://www.w3.org/2000/svg">
  <path class="st0" d="M 209.459 210.229 C 209.359 214.929 208.059 220.129 205.559 225.729 C 201.859 235.129 194.859 238.329 187.159 238.229 C 185.659 238.229 184.059 238.029 182.459 237.829 C 169.959 235.729 157.059 233.629 145.459 228.229 C 113.359 212.929 103.782 198.829 83.389 181.587 C 76.707 175.938 67.745 168.829 62.645 161.629 C 58.345 155.629 56.245 150.229 56.345 145.029 C 56.445 138.529 60.045 132.629 67.145 126.929 C 75.045 120.429 84.663 112.697 93.074 107.027 C 115.221 92.097 126.359 82.629 160.659 68.429 C 167.159 65.729 176.759 61.029 183.259 60.229 C 186.259 60.029 189.459 59.729 192.559 59.729 C 199.559 59.829 206.159 61.629 209.959 69.729 C 211.859 73.729 212.759 78.029 212.659 82.229 C 212.559 89.729 215.059 114.429 212.859 154.029 C 211.659 173.829 210.059 182.029 209.459 210.229 Z" style="fill: white;" transform="matrix(0, -1, 1, 0, 1.020427, 293.834651)"/>
</svg>