<svg xmlns="http://www.w3.org/2000/svg" viewBox="0 0 500 500" xmlns:v="https://vecta.io/nano"><path d="M148.831 436.522a3.846 3.846 0 0 1-2.409-.849l-8.589-6.917a3.848 3.848 0 0 1-1.291-1.962L92.515 268.5h-10.8l-.7.018c-6.98 0-15.131-4.118-15.131-15.724s8.151-15.725 15.131-15.725c.33 0 .579.01.73.019l46.292.566 24.155-49.554a3.841 3.841 0 0 1 5.595-1.5l13.969 9.391a3.838 3.838 0 0 1 1.457 4.529l-13.979 37.472 93.1 1.076 96.62-1.118-11.779-32.894a3.841 3.841 0 0 1 1.665-4.6l14.739-8.686a3.839 3.839 0 0 1 5.421 1.642l21.1 44.2 42.743-.525a12.54 12.54 0 0 1 .729-.019c6.98 0 15.131 4.118 15.131 15.725 0 7.668-3.567 11.506-6.559 13.376a16.5 16.5 0 0 1-8.571 2.348h0c-.311 0-.549-.01-.7-.018h-10.8l-44.036 158.295a3.842 3.842 0 0 1-1.291 1.962l-8.589 6.917a3.846 3.846 0 0 1-2.409.849zm167.133-29.5c3.851 1.984 10.509 4.858 15.45 4.858 6.341 0 14.257-3.544 17.664-5.232l6.494-51.279c-4.174-2.006-11.378-4.945-16.4-4.945-5.247 0-12.742 3.218-16.7 5.211zm-75.672-.241c3.539 1.731 11.214 5.1 17.4 5.1 5.086 0 11.94-3.017 15.733-5l-.335-51.376c-4.021-2-11.3-5.079-16.436-5.079s-12.568 3.081-16.692 5.087zm-73.252-.133c3.406 1.687 11.322 5.232 17.664 5.232 4.962 0 11.607-2.872 15.45-4.855l-6.508-51.39c-3.957-1.993-11.454-5.211-16.7-5.211-5.021 0-12.223 2.939-16.4 4.946zm73.252-80.192c3.539 1.731 11.214 5.1 17.4 5.1 5.064 0 11.931-3.018 15.733-5l-.335-51.373c-4.021-2-11.3-5.077-16.436-5.077-5.159 0-12.576 3.078-16.692 5.084zm86.922-.085c3.851 1.982 10.509 4.857 15.45 4.857 6.341 0 14.256-3.544 17.664-5.231l6.494-51.278c-4.175-2.006-11.378-4.945-16.4-4.945-5.247 0-12.742 3.217-16.7 5.211zM153.87 326c3.406 1.686 11.322 5.231 17.664 5.231 4.941 0 11.6-2.874 15.45-4.857l-6.508-51.386c-3.958-1.993-11.454-5.211-16.7-5.211-5.021 0-12.224 2.938-16.4 4.945z"/><path d="M155.645 189.779l13.969 9.391-15.888 42.591 98.564 1.139 102.1-1.18-13.6-37.968 14.738-8.685 22.158 46.417 45.3-.557s.21-.018.576-.018c2.377 0 11.29.744 11.29 11.884s-8.914 11.884-11.29 11.884c-.365 0-.576-.018-.576-.018h-13.84l-44.809 161.105-8.589 6.917H148.831l-8.589-6.917-44.809-161.105H81.59s-.211.018-.577.018c-2.377 0-11.29-.743-11.29-11.884s8.914-11.884 11.29-11.884a7.54 7.54 0 0 1 .577.018l48.832.6 25.223-51.746m187.019 145.287c9.411 0 21.221-6.588 21.221-6.588l7.087-55.959s-12.035-6.589-20.549-6.589-20.261 6.589-20.261 6.589l-7.087 55.959s11.074 6.588 19.589 6.588m-171.13 0c8.514 0 19.588-6.588 19.588-6.588l-7.086-55.959s-11.747-6.589-20.261-6.589-20.549 6.589-20.549 6.589l7.087 55.959s11.81 6.588 21.221 6.588m86.153.326c8.515 0 19.589-6.589 19.589-6.589l-.366-55.958s-11.746-6.589-20.261-6.589-20.548 6.589-20.548 6.589l.365 55.958s11.81 6.589 21.221 6.589m73.727 80.325c9.411 0 21.221-6.589 21.221-6.589l7.087-55.958s-12.035-6.589-20.549-6.589-20.261 6.589-20.261 6.589l-7.086 55.958s11.074 6.589 19.588 6.589m-73.727 0c8.515 0 19.589-6.589 19.589-6.589l-.366-55.958s-11.746-6.589-20.261-6.589-20.548 6.589-20.548 6.589l.365 55.958s11.81 6.589 21.221 6.589m-72.983 0c8.515 0 19.589-6.589 19.589-6.589l-7.087-55.958s-11.746-6.589-20.261-6.589-20.549 6.589-20.549 6.589l7.087 55.958s11.81 6.589 21.221 6.589M155.644 182.1a7.677 7.677 0 0 0-6.9 4.316l-23.091 47.37-43.784-.536a17.11 17.11 0 0 0-.852-.02 20.4 20.4 0 0 0-10.607 2.931c-3.124 1.953-8.364 6.71-8.364 16.634 0 13.516 9.528 19.565 18.971 19.565a16.94 16.94 0 0 0 .794-.017H89.6l43.245 155.481a7.688 7.688 0 0 0 2.582 3.925l8.589 6.917a7.685 7.685 0 0 0 4.818 1.7h206.914a7.683 7.683 0 0 0 4.818-1.7l8.589-6.917a7.682 7.682 0 0 0 2.582-3.925l43.245-155.481h7.79a16.94 16.94 0 0 0 .794.017c9.443 0 18.971-6.049 18.971-19.565s-9.528-19.565-18.971-19.565a17.11 17.11 0 0 0-.852.02l-40.211.5-20.042-41.985a7.68 7.68 0 0 0-10.832-3.309l-14.738 8.686a7.68 7.68 0 0 0-3.332 9.207l9.962 27.822-91.231 1.055-87.547-1.013 12.068-32.351a7.682 7.682 0 0 0-2.912-9.06L159.93 183.4a7.681 7.681 0 0 0-4.286-1.306zm181.627 95.427c4.111-1.91 9.568-3.912 13.152-3.912 3.281 0 8.194 1.667 12.235 3.416l-5.878 46.409c-3.9 1.776-9.708 3.947-14.116 3.947-3.213 0-7.735-1.638-11.294-3.264l5.9-46.6zm-185.731-.5c4.039-1.749 8.953-3.416 12.235-3.416 3.66 0 9.21 2.094 13.152 3.919l5.9 46.6c-3.666 1.678-8.14 3.257-11.3 3.257-4.392 0-10.241-2.191-14.117-3.95l-5.877-46.408zm92.273.59c4.143-1.841 9.389-3.68 12.836-3.68 3.428 0 8.57 1.831 12.61 3.664l.305 46.582c-3.765 1.776-8.553 3.528-11.877 3.528-4.19 0-9.707-2-13.571-3.705l-.3-46.389zm82.208 80.557c4.111-1.911 9.568-3.912 13.152-3.912 3.282 0 8.194 1.666 12.235 3.416l-5.878 46.411c-3.9 1.776-9.708 3.947-14.116 3.947-3.213 0-7.735-1.638-11.294-3.264l5.9-46.6zm-82.208-.233c4.143-1.841 9.389-3.679 12.836-3.679 3.428 0 8.57 1.831 12.61 3.664l.305 46.582c-3.765 1.775-8.553 3.528-11.877 3.528-4.19 0-9.707-2-13.571-3.7l-.3-46.39zm-79.1-.263c4.039-1.749 8.953-3.416 12.235-3.416 3.583 0 9.038 2 13.152 3.912l5.9 46.605c-3.666 1.678-8.14 3.257-11.295 3.257-4.392 0-10.241-2.191-14.117-3.95l-5.878-46.406zm52.1-145.185a7.488 7.488 0 0 1-7.416-8.541l7.567-53.5-46.294-2.784a7.491 7.491 0 0 1-4.709-12.908l87.544-83.175a7.43 7.43 0 0 1 4.3-2l.209-.022.661-.03h0l.63.024.316.033a7.39 7.39 0 0 1 4.251 2l87.546 83.176a7.491 7.491 0 0 1-4.709 12.907l-46.3 2.784 7.568 53.5a7.489 7.489 0 0 1-7.416 8.539z"/><path d="M258.707 53.373q.147 0 .294.012l.126.013a3.643 3.643 0 0 1 2.1.971l87.545 83.176a3.65 3.65 0 0 1-2.294 6.289l-50.451 3.034 8.151 57.624a3.649 3.649 0 0 1-3.613 4.16h-41.854-.023-.023-41.852a3.649 3.649 0 0 1-3.614-4.16l8.151-57.624-50.45-3.034a3.649 3.649 0 0 1-2.3-6.289l87.545-83.176a3.64 3.64 0 0 1 2.093-.97l.135-.014.29-.012h.038m0-7.682h-.038l-.9.036-.089.008-.367.039a11.245 11.245 0 0 0-6.454 3.026l-87.546 83.176a11.331 11.331 0 0 0 7.124 19.525l42.139 2.535-6.985 49.38a11.332 11.332 0 0 0 11.22 12.918h83.75a11.331 11.331 0 0 0 11.219-12.92l-6.974-49.378 42.14-2.535a11.331 11.331 0 0 0 7.123-19.526L266.516 48.8a11.244 11.244 0 0 0-6.474-3.028l-.334-.036-.092-.008-.909-.037z"/></svg>