<svg xmlns="http://www.w3.org/2000/svg" viewBox="0 0 500 500" stroke="#000" stroke-linejoin="round" stroke-width="8" xmlns:v="https://vecta.io/nano"><path d="M431.954 303.327c-25.734-83.874-41.154-102.6-44.8-108.073H109.588c-3.643 5.469-19.063 24.2-44.8 108.073-31.559 102.873-22.843 114.517 41.94 129.889 19.292 4.578 59.4 11.735 141.645 11.735s122.352-7.157 141.644-11.735c64.783-15.372 73.499-27.016 41.937-129.889zM391.762 131h-81.657a35.583 35.583 0 1 0-38.786 0l-23.206-.988a40.973 40.973 0 0 1-1.97-55.055 33.273 33.273 0 0 0-23.019-9.406c-19.3 0-34.948 16.988-34.948 37.945A39.424 39.424 0 0 0 199.062 131h-94.079a12.992 12.992 0 0 0-12.992 12.992v6.422a12.992 12.992 0 0 0 12.992 12.992h286.779a12.991 12.991 0 0 0 12.992-12.992v-6.422A12.992 12.992 0 0 0 391.762 131z"/></svg>